<?xml version="1.0" encoding="UTF-8"?>
<svg id="Layer_1" data-name="Layer 1" xmlns="http://www.w3.org/2000/svg" viewBox="0 0 82.51 33.4">
  <defs>
    <style>
      .cls-1 {
        fill: #635bff;
      }
    </style>
  </defs>
  <path class="cls-1" d="M57.05,6.98c-1.61,0-3.15.62-4.3,1.75l-.28-1.39h-4.82v26.06l5.49-1.19v-6.31c1.09.91,2.47,1.41,3.89,1.41,3.91,0,7.5-3.21,7.5-10.31,0-6.49-3.63-10.02-7.48-10.02ZM55.74,22.36c-.97.06-1.92-.33-2.58-1.05v-8.29c.66-.75,1.63-1.15,2.62-1.11,2.02,0,3.39,2.28,3.39,5.2s-1.39,5.24-3.43,5.24Z"/>
  <path class="cls-1" d="M74.66,6.98c-5.28,0-8.49,4.56-8.49,10.31,0,6.8,3.79,10.24,9.2,10.24,2.11.03,4.19-.47,6.05-1.47v-4.54c-1.69.85-3.56,1.28-5.44,1.25-2.18,0-4.03-.79-4.32-3.43h10.85v-2.02c.18-5.79-2.56-10.35-7.84-10.35ZM71.69,15.19c0-2.54,1.55-3.61,2.92-3.61s2.82,1.07,2.82,3.61h-5.75Z"/>
  <path class="cls-1" d="M32.85,8.85l-.34-1.65h-4.68v19.58h5.4v-13.27c1-1.21,2.65-1.68,4.13-1.17v-5.14c-1.71-.67-3.65.04-4.52,1.65Z"/>
  <path class="cls-1" d="M5.55,13.09c0-.89.73-1.23,1.88-1.23,1.91.04,3.77.54,5.44,1.45v-5.3c-1.73-.7-3.58-1.05-5.44-1.03C2.96,6.98,0,9.36,0,13.35c0,6.25,8.35,5.24,8.35,7.93,0,1.05-.89,1.39-2.02,1.39-2.13-.12-4.2-.75-6.05-1.81v5.42c1.9.85,3.97,1.29,6.05,1.29,4.56,0,7.7-2.32,7.7-6.37-.1-6.78-8.49-5.57-8.49-8.11Z"/>
  <path class="cls-1" d="M21.32,2.56l-5.34,1.17v18.01c-.11,3.08,2.3,5.67,5.38,5.79.1,0,.2,0,.31,0,1.32.06,2.64-.2,3.85-.75v-4.54c-.71.3-4.15,1.33-4.15-2.02v-8.07h4.15v-4.72h-4.15l-.04-4.88Z"/>
  <polygon class="cls-1" points="39.41 5.51 44.91 4.36 44.91 0 39.41 1.15 39.41 5.51"/>
  <rect class="cls-1" x="39.41" y="7.34" width="5.51" height="19.44"/>
</svg>